<mxfile host="app.diagrams.net" modified="2023-04-04T09:12:48.770Z" agent="Mozilla/5.0 (Macintosh; Intel Mac OS X 10.15; rv:109.0) Gecko/20100101 Firefox/111.0" etag="I1HGFdxGeMLmg8Uso7ah" version="21.1.4" type="device">
  <diagram name="Page-1" id="qKOGijrOrtx-v8pJna3l">
    <mxGraphModel dx="686" dy="493" grid="1" gridSize="10" guides="1" tooltips="1" connect="1" arrows="1" fold="1" page="1" pageScale="1" pageWidth="827" pageHeight="1169" math="0" shadow="0">
      <root>
        <mxCell id="0" />
        <mxCell id="1" parent="0" />
        <mxCell id="L-vEDlSf9iByJ1KtY_5_-1" value="Database" style="shape=cylinder3;whiteSpace=wrap;html=1;boundedLbl=1;backgroundOutline=1;size=15;" vertex="1" parent="1">
          <mxGeometry x="82" y="180" width="80" height="140" as="geometry" />
        </mxCell>
        <mxCell id="L-vEDlSf9iByJ1KtY_5_-3" value="" style="whiteSpace=wrap;html=1;aspect=fixed;" vertex="1" parent="1">
          <mxGeometry x="220" y="170" width="160" height="160" as="geometry" />
        </mxCell>
        <mxCell id="L-vEDlSf9iByJ1KtY_5_-18" style="edgeStyle=orthogonalEdgeStyle;rounded=0;orthogonalLoop=1;jettySize=auto;html=1;exitX=1;exitY=0.214;exitDx=0;exitDy=0;entryX=0;entryY=0.5;entryDx=0;entryDy=0;exitPerimeter=0;" edge="1" parent="1" source="L-vEDlSf9iByJ1KtY_5_-1" target="L-vEDlSf9iByJ1KtY_5_-2">
          <mxGeometry relative="1" as="geometry" />
        </mxCell>
        <mxCell id="L-vEDlSf9iByJ1KtY_5_-22" style="edgeStyle=orthogonalEdgeStyle;rounded=0;orthogonalLoop=1;jettySize=auto;html=1;exitX=1;exitY=0.5;exitDx=0;exitDy=0;" edge="1" parent="1" source="L-vEDlSf9iByJ1KtY_5_-2">
          <mxGeometry relative="1" as="geometry">
            <mxPoint x="440" y="210" as="targetPoint" />
          </mxGeometry>
        </mxCell>
        <mxCell id="L-vEDlSf9iByJ1KtY_5_-2" value="Query Model" style="rounded=1;whiteSpace=wrap;html=1;" vertex="1" parent="1">
          <mxGeometry x="240" y="180" width="120" height="60" as="geometry" />
        </mxCell>
        <mxCell id="L-vEDlSf9iByJ1KtY_5_-17" style="edgeStyle=orthogonalEdgeStyle;rounded=0;orthogonalLoop=1;jettySize=auto;html=1;exitX=0;exitY=0.5;exitDx=0;exitDy=0;entryX=1;entryY=0.786;entryDx=0;entryDy=0;entryPerimeter=0;" edge="1" parent="1" source="L-vEDlSf9iByJ1KtY_5_-4" target="L-vEDlSf9iByJ1KtY_5_-1">
          <mxGeometry relative="1" as="geometry" />
        </mxCell>
        <mxCell id="L-vEDlSf9iByJ1KtY_5_-4" value="Command Model" style="rounded=1;whiteSpace=wrap;html=1;" vertex="1" parent="1">
          <mxGeometry x="240" y="260" width="120" height="60" as="geometry" />
        </mxCell>
        <mxCell id="L-vEDlSf9iByJ1KtY_5_-21" style="edgeStyle=orthogonalEdgeStyle;rounded=0;orthogonalLoop=1;jettySize=auto;html=1;exitX=0;exitY=1;exitDx=0;exitDy=0;exitPerimeter=0;entryX=1;entryY=0.5;entryDx=0;entryDy=0;" edge="1" parent="1" source="L-vEDlSf9iByJ1KtY_5_-5" target="L-vEDlSf9iByJ1KtY_5_-4">
          <mxGeometry relative="1" as="geometry">
            <Array as="points">
              <mxPoint x="418" y="290" />
              <mxPoint x="418" y="290" />
            </Array>
          </mxGeometry>
        </mxCell>
        <mxCell id="L-vEDlSf9iByJ1KtY_5_-5" value="Client" style="shape=umlActor;verticalLabelPosition=bottom;verticalAlign=top;html=1;outlineConnect=0;" vertex="1" parent="1">
          <mxGeometry x="428" y="200" width="50" height="90" as="geometry" />
        </mxCell>
        <mxCell id="L-vEDlSf9iByJ1KtY_5_-24" value="Updates" style="text;html=1;strokeColor=none;fillColor=none;align=center;verticalAlign=middle;whiteSpace=wrap;rounded=0;" vertex="1" parent="1">
          <mxGeometry x="165" y="270" width="60" height="30" as="geometry" />
        </mxCell>
        <mxCell id="L-vEDlSf9iByJ1KtY_5_-25" value="Reads" style="text;html=1;align=center;verticalAlign=middle;resizable=0;points=[];autosize=1;strokeColor=none;fillColor=none;" vertex="1" parent="1">
          <mxGeometry x="160" y="190" width="60" height="30" as="geometry" />
        </mxCell>
        <mxCell id="L-vEDlSf9iByJ1KtY_5_-26" value="Get X" style="text;html=1;strokeColor=none;fillColor=none;align=center;verticalAlign=middle;whiteSpace=wrap;rounded=0;" vertex="1" parent="1">
          <mxGeometry x="370" y="190" width="70" height="30" as="geometry" />
        </mxCell>
        <mxCell id="L-vEDlSf9iByJ1KtY_5_-27" value="Do Y" style="text;html=1;align=center;verticalAlign=middle;resizable=0;points=[];autosize=1;strokeColor=none;fillColor=none;" vertex="1" parent="1">
          <mxGeometry x="380" y="270" width="50" height="30" as="geometry" />
        </mxCell>
      </root>
    </mxGraphModel>
  </diagram>
</mxfile>
